<?xml version="1.0" encoding="UTF-8"?>
<svg xmlns="http://www.w3.org/2000/svg" width="1500" height="940" viewBox="0 0 1500 940" role="img" aria-labelledby="title desc">
<title id="title">CCK-8 96 瀛旀澘甯冨眬</title><desc id="desc">ES-Cu IC50 + TTM rescue 96 well layout</desc>
<defs><linearGradient id="bg" x1="0" y1="0" x2="1" y2="1"><stop offset="0" stop-color="#effcff"/><stop offset="1" stop-color="#f4f1ff"/></linearGradient><filter id="shadow" x="-15%" y="-15%" width="130%" height="130%"><feDropShadow dx="0" dy="10" stdDeviation="12" flood-color="#1e3a5f" flood-opacity="0.10"/></filter><style><![CDATA[text{font-family:Microsoft YaHei,Noto Sans CJK SC,Arial,sans-serif}.title{font-size:42px;font-weight:800;fill:#10223f}.sub{font-size:20px;fill:#42566f}.lab{font-size:16px;font-weight:800;fill:#17375f}.well{font-size:12px;font-weight:800;text-anchor:middle;dominant-baseline:middle}.legend{font-size:16px;font-weight:650;fill:#24364d}.small{font-size:15px;fill:#52657d}]]></style></defs>
<rect width="1500" height="940" rx="34" fill="url(#bg)"/><rect x="28" y="28" width="1444" height="884" rx="30" fill="none" stroke="#17375f" stroke-width="4"/>
<circle cx="1328" cy="86" r="20" fill="#8ee3bb" stroke="#17375f" stroke-width="3" opacity="0.9"/><circle cx="1370" cy="110" r="12" fill="#ffe8a3" stroke="#17375f" stroke-width="3" opacity="0.9"/><circle cx="1286" cy="124" r="10" fill="#d8f3ff" stroke="#17375f" stroke-width="3" opacity="0.9"/>
<text x="80" y="86" class="title">CCK-8 96 瀛旀澘甯冨眬</text><text x="82" y="124" class="sub">ES-Cu IC50 + TTM rescue | 姣忔牚缁嗚優 1 鏉?| 鍐呭湀 60 瀛?= 12 缁?x 5 澶嶅瓟</text>
<rect x="68" y="148" width="980" height="620" rx="24" fill="#fff" stroke="#d8e8f5" filter="url(#shadow)"/>
<text x="110" y="162" class="lab" text-anchor="middle">1</text>
<text x="182" y="162" class="lab" text-anchor="middle">2</text>
<text x="254" y="162" class="lab" text-anchor="middle">3</text>
<text x="326" y="162" class="lab" text-anchor="middle">4</text>
<text x="398" y="162" class="lab" text-anchor="middle">5</text>
<text x="470" y="162" class="lab" text-anchor="middle">6</text>
<text x="542" y="162" class="lab" text-anchor="middle">7</text>
<text x="614" y="162" class="lab" text-anchor="middle">8</text>
<text x="686" y="162" class="lab" text-anchor="middle">9</text>
<text x="758" y="162" class="lab" text-anchor="middle">10</text>
<text x="830" y="162" class="lab" text-anchor="middle">11</text>
<text x="902" y="162" class="lab" text-anchor="middle">12</text>
<text x="72" y="196" class="lab" text-anchor="middle">A</text>
<circle cx="110" cy="190" r="22" fill="#d8f3ff" stroke="#5daed0" stroke-width="3"/><circle cx="103" cy="183" r="6" fill="#fff" opacity=".35"/><text x="110" y="191" class="well" fill="#0f4f67">PBS</text>
<circle cx="182" cy="190" r="22" fill="#d8f3ff" stroke="#5daed0" stroke-width="3"/><circle cx="175" cy="183" r="6" fill="#fff" opacity=".35"/><text x="182" y="191" class="well" fill="#0f4f67">PBS</text>
<circle cx="254" cy="190" r="22" fill="#d8f3ff" stroke="#5daed0" stroke-width="3"/><circle cx="247" cy="183" r="6" fill="#fff" opacity=".35"/><text x="254" y="191" class="well" fill="#0f4f67">PBS</text>
<circle cx="326" cy="190" r="22" fill="#d8f3ff" stroke="#5daed0" stroke-width="3"/><circle cx="319" cy="183" r="6" fill="#fff" opacity=".35"/><text x="326" y="191" class="well" fill="#0f4f67">PBS</text>
<circle cx="398" cy="190" r="22" fill="#d8f3ff" stroke="#5daed0" stroke-width="3"/><circle cx="391" cy="183" r="6" fill="#fff" opacity=".35"/><text x="398" y="191" class="well" fill="#0f4f67">PBS</text>
<circle cx="470" cy="190" r="22" fill="#d8f3ff" stroke="#5daed0" stroke-width="3"/><circle cx="463" cy="183" r="6" fill="#fff" opacity=".35"/><text x="470" y="191" class="well" fill="#0f4f67">PBS</text>
<circle cx="542" cy="190" r="22" fill="#d8f3ff" stroke="#5daed0" stroke-width="3"/><circle cx="535" cy="183" r="6" fill="#fff" opacity=".35"/><text x="542" y="191" class="well" fill="#0f4f67">PBS</text>
<circle cx="614" cy="190" r="22" fill="#d8f3ff" stroke="#5daed0" stroke-width="3"/><circle cx="607" cy="183" r="6" fill="#fff" opacity=".35"/><text x="614" y="191" class="well" fill="#0f4f67">PBS</text>
<circle cx="686" cy="190" r="22" fill="#d8f3ff" stroke="#5daed0" stroke-width="3"/><circle cx="679" cy="183" r="6" fill="#fff" opacity=".35"/><text x="686" y="191" class="well" fill="#0f4f67">PBS</text>
<circle cx="758" cy="190" r="22" fill="#d8f3ff" stroke="#5daed0" stroke-width="3"/><circle cx="751" cy="183" r="6" fill="#fff" opacity=".35"/><text x="758" y="191" class="well" fill="#0f4f67">PBS</text>
<circle cx="830" cy="190" r="22" fill="#d8f3ff" stroke="#5daed0" stroke-width="3"/><circle cx="823" cy="183" r="6" fill="#fff" opacity=".35"/><text x="830" y="191" class="well" fill="#0f4f67">PBS</text>
<circle cx="902" cy="190" r="22" fill="#d8f3ff" stroke="#5daed0" stroke-width="3"/><circle cx="895" cy="183" r="6" fill="#fff" opacity=".35"/><text x="902" y="191" class="well" fill="#0f4f67">PBS</text>
<text x="72" y="256" class="lab" text-anchor="middle">B</text>
<circle cx="110" cy="250" r="22" fill="#d8f3ff" stroke="#5daed0" stroke-width="3"/><circle cx="103" cy="243" r="6" fill="#fff" opacity=".35"/><text x="110" y="251" class="well" fill="#0f4f67">PBS</text>
<circle cx="182" cy="250" r="22" fill="#ffe8a3" stroke="#d99a16" stroke-width="3"/><circle cx="175" cy="243" r="6" fill="#fff" opacity=".35"/><text x="182" y="251" class="well" fill="#4d3400">Veh</text>
<circle cx="254" cy="250" r="22" fill="#ffe8a3" stroke="#d99a16" stroke-width="3"/><circle cx="247" cy="243" r="6" fill="#fff" opacity=".35"/><text x="254" y="251" class="well" fill="#4d3400">Veh</text>
<circle cx="326" cy="250" r="22" fill="#ffe8a3" stroke="#d99a16" stroke-width="3"/><circle cx="319" cy="243" r="6" fill="#fff" opacity=".35"/><text x="326" y="251" class="well" fill="#4d3400">Veh</text>
<circle cx="398" cy="250" r="22" fill="#ffe8a3" stroke="#d99a16" stroke-width="3"/><circle cx="391" cy="243" r="6" fill="#fff" opacity=".35"/><text x="398" y="251" class="well" fill="#4d3400">Veh</text>
<circle cx="470" cy="250" r="22" fill="#ffe8a3" stroke="#d99a16" stroke-width="3"/><circle cx="463" cy="243" r="6" fill="#fff" opacity=".35"/><text x="470" y="251" class="well" fill="#4d3400">Veh</text>
<circle cx="542" cy="250" r="22" fill="#d7f5df" stroke="#74c88b" stroke-width="3"/><circle cx="535" cy="243" r="6" fill="#fff" opacity=".35"/><text x="542" y="251" class="well" fill="#124c27">E0.1</text>
<circle cx="614" cy="250" r="22" fill="#d7f5df" stroke="#74c88b" stroke-width="3"/><circle cx="607" cy="243" r="6" fill="#fff" opacity=".35"/><text x="614" y="251" class="well" fill="#124c27">E0.1</text>
<circle cx="686" cy="250" r="22" fill="#d7f5df" stroke="#74c88b" stroke-width="3"/><circle cx="679" cy="243" r="6" fill="#fff" opacity=".35"/><text x="686" y="251" class="well" fill="#124c27">E0.1</text>
<circle cx="758" cy="250" r="22" fill="#d7f5df" stroke="#74c88b" stroke-width="3"/><circle cx="751" cy="243" r="6" fill="#fff" opacity=".35"/><text x="758" y="251" class="well" fill="#124c27">E0.1</text>
<circle cx="830" cy="250" r="22" fill="#d7f5df" stroke="#74c88b" stroke-width="3"/><circle cx="823" cy="243" r="6" fill="#fff" opacity=".35"/><text x="830" y="251" class="well" fill="#124c27">E0.1</text>
<circle cx="902" cy="250" r="22" fill="#d8f3ff" stroke="#5daed0" stroke-width="3"/><circle cx="895" cy="243" r="6" fill="#fff" opacity=".35"/><text x="902" y="251" class="well" fill="#0f4f67">PBS</text>
<text x="72" y="316" class="lab" text-anchor="middle">C</text>
<circle cx="110" cy="310" r="22" fill="#d8f3ff" stroke="#5daed0" stroke-width="3"/><circle cx="103" cy="303" r="6" fill="#fff" opacity=".35"/><text x="110" y="311" class="well" fill="#0f4f67">PBS</text>
<circle cx="182" cy="310" r="22" fill="#b9efd0" stroke="#54bb7d" stroke-width="3"/><circle cx="175" cy="303" r="6" fill="#fff" opacity=".35"/><text x="182" y="311" class="well" fill="#0f4b2a">E0.3</text>
<circle cx="254" cy="310" r="22" fill="#b9efd0" stroke="#54bb7d" stroke-width="3"/><circle cx="247" cy="303" r="6" fill="#fff" opacity=".35"/><text x="254" y="311" class="well" fill="#0f4b2a">E0.3</text>
<circle cx="326" cy="310" r="22" fill="#b9efd0" stroke="#54bb7d" stroke-width="3"/><circle cx="319" cy="303" r="6" fill="#fff" opacity=".35"/><text x="326" y="311" class="well" fill="#0f4b2a">E0.3</text>
<circle cx="398" cy="310" r="22" fill="#b9efd0" stroke="#54bb7d" stroke-width="3"/><circle cx="391" cy="303" r="6" fill="#fff" opacity=".35"/><text x="398" y="311" class="well" fill="#0f4b2a">E0.3</text>
<circle cx="470" cy="310" r="22" fill="#b9efd0" stroke="#54bb7d" stroke-width="3"/><circle cx="463" cy="303" r="6" fill="#fff" opacity=".35"/><text x="470" y="311" class="well" fill="#0f4b2a">E0.3</text>
<circle cx="542" cy="310" r="22" fill="#8ee3bb" stroke="#35a96f" stroke-width="3"/><circle cx="535" cy="303" r="6" fill="#fff" opacity=".35"/><text x="542" y="311" class="well" fill="#073f24">E1</text>
<circle cx="614" cy="310" r="22" fill="#8ee3bb" stroke="#35a96f" stroke-width="3"/><circle cx="607" cy="303" r="6" fill="#fff" opacity=".35"/><text x="614" y="311" class="well" fill="#073f24">E1</text>
<circle cx="686" cy="310" r="22" fill="#8ee3bb" stroke="#35a96f" stroke-width="3"/><circle cx="679" cy="303" r="6" fill="#fff" opacity=".35"/><text x="686" y="311" class="well" fill="#073f24">E1</text>
<circle cx="758" cy="310" r="22" fill="#8ee3bb" stroke="#35a96f" stroke-width="3"/><circle cx="751" cy="303" r="6" fill="#fff" opacity=".35"/><text x="758" y="311" class="well" fill="#073f24">E1</text>
<circle cx="830" cy="310" r="22" fill="#8ee3bb" stroke="#35a96f" stroke-width="3"/><circle cx="823" cy="303" r="6" fill="#fff" opacity=".35"/><text x="830" y="311" class="well" fill="#073f24">E1</text>
<circle cx="902" cy="310" r="22" fill="#d8f3ff" stroke="#5daed0" stroke-width="3"/><circle cx="895" cy="303" r="6" fill="#fff" opacity=".35"/><text x="902" y="311" class="well" fill="#0f4f67">PBS</text>
<text x="72" y="376" class="lab" text-anchor="middle">D</text>
<circle cx="110" cy="370" r="22" fill="#d8f3ff" stroke="#5daed0" stroke-width="3"/><circle cx="103" cy="363" r="6" fill="#fff" opacity=".35"/><text x="110" y="371" class="well" fill="#0f4f67">PBS</text>
<circle cx="182" cy="370" r="22" fill="#62d0a4" stroke="#209365" stroke-width="3"/><circle cx="175" cy="363" r="6" fill="#fff" opacity=".35"/><text x="182" y="371" class="well" fill="#05381f">E3</text>
<circle cx="254" cy="370" r="22" fill="#62d0a4" stroke="#209365" stroke-width="3"/><circle cx="247" cy="363" r="6" fill="#fff" opacity=".35"/><text x="254" y="371" class="well" fill="#05381f">E3</text>
<circle cx="326" cy="370" r="22" fill="#62d0a4" stroke="#209365" stroke-width="3"/><circle cx="319" cy="363" r="6" fill="#fff" opacity=".35"/><text x="326" y="371" class="well" fill="#05381f">E3</text>
<circle cx="398" cy="370" r="22" fill="#62d0a4" stroke="#209365" stroke-width="3"/><circle cx="391" cy="363" r="6" fill="#fff" opacity=".35"/><text x="398" y="371" class="well" fill="#05381f">E3</text>
<circle cx="470" cy="370" r="22" fill="#62d0a4" stroke="#209365" stroke-width="3"/><circle cx="463" cy="363" r="6" fill="#fff" opacity=".35"/><text x="470" y="371" class="well" fill="#05381f">E3</text>
<circle cx="542" cy="370" r="22" fill="#35b98a" stroke="#127b56" stroke-width="3"/><circle cx="535" cy="363" r="6" fill="#fff" opacity=".35"/><text x="542" y="371" class="well" fill="#ffffff">E10</text>
<circle cx="614" cy="370" r="22" fill="#35b98a" stroke="#127b56" stroke-width="3"/><circle cx="607" cy="363" r="6" fill="#fff" opacity=".35"/><text x="614" y="371" class="well" fill="#ffffff">E10</text>
<circle cx="686" cy="370" r="22" fill="#35b98a" stroke="#127b56" stroke-width="3"/><circle cx="679" cy="363" r="6" fill="#fff" opacity=".35"/><text x="686" y="371" class="well" fill="#ffffff">E10</text>
<circle cx="758" cy="370" r="22" fill="#35b98a" stroke="#127b56" stroke-width="3"/><circle cx="751" cy="363" r="6" fill="#fff" opacity=".35"/><text x="758" y="371" class="well" fill="#ffffff">E10</text>
<circle cx="830" cy="370" r="22" fill="#35b98a" stroke="#127b56" stroke-width="3"/><circle cx="823" cy="363" r="6" fill="#fff" opacity=".35"/><text x="830" y="371" class="well" fill="#ffffff">E10</text>
<circle cx="902" cy="370" r="22" fill="#d8f3ff" stroke="#5daed0" stroke-width="3"/><circle cx="895" cy="363" r="6" fill="#fff" opacity=".35"/><text x="902" y="371" class="well" fill="#0f4f67">PBS</text>
<text x="72" y="436" class="lab" text-anchor="middle">E</text>
<circle cx="110" cy="430" r="22" fill="#d8f3ff" stroke="#5daed0" stroke-width="3"/><circle cx="103" cy="423" r="6" fill="#fff" opacity=".35"/><text x="110" y="431" class="well" fill="#0f4f67">PBS</text>
<circle cx="182" cy="430" r="22" fill="#158160" stroke="#0e5c47" stroke-width="3"/><circle cx="175" cy="423" r="6" fill="#fff" opacity=".35"/><text x="182" y="431" class="well" fill="#ffffff">E30</text>
<circle cx="254" cy="430" r="22" fill="#158160" stroke="#0e5c47" stroke-width="3"/><circle cx="247" cy="423" r="6" fill="#fff" opacity=".35"/><text x="254" y="431" class="well" fill="#ffffff">E30</text>
<circle cx="326" cy="430" r="22" fill="#158160" stroke="#0e5c47" stroke-width="3"/><circle cx="319" cy="423" r="6" fill="#fff" opacity=".35"/><text x="326" y="431" class="well" fill="#ffffff">E30</text>
<circle cx="398" cy="430" r="22" fill="#158160" stroke="#0e5c47" stroke-width="3"/><circle cx="391" cy="423" r="6" fill="#fff" opacity=".35"/><text x="398" y="431" class="well" fill="#ffffff">E30</text>
<circle cx="470" cy="430" r="22" fill="#158160" stroke="#0e5c47" stroke-width="3"/><circle cx="463" cy="423" r="6" fill="#fff" opacity=".35"/><text x="470" y="431" class="well" fill="#ffffff">E30</text>
<circle cx="542" cy="430" r="22" fill="#ede0ff" stroke="#a78bfa" stroke-width="3"/><circle cx="535" cy="423" r="6" fill="#fff" opacity=".35"/><text x="542" y="431" class="well" fill="#3b236c">T+V</text>
<circle cx="614" cy="430" r="22" fill="#ede0ff" stroke="#a78bfa" stroke-width="3"/><circle cx="607" cy="423" r="6" fill="#fff" opacity=".35"/><text x="614" y="431" class="well" fill="#3b236c">T+V</text>
<circle cx="686" cy="430" r="22" fill="#ede0ff" stroke="#a78bfa" stroke-width="3"/><circle cx="679" cy="423" r="6" fill="#fff" opacity=".35"/><text x="686" y="431" class="well" fill="#3b236c">T+V</text>
<circle cx="758" cy="430" r="22" fill="#ede0ff" stroke="#a78bfa" stroke-width="3"/><circle cx="751" cy="423" r="6" fill="#fff" opacity=".35"/><text x="758" y="431" class="well" fill="#3b236c">T+V</text>
<circle cx="830" cy="430" r="22" fill="#ede0ff" stroke="#a78bfa" stroke-width="3"/><circle cx="823" cy="423" r="6" fill="#fff" opacity=".35"/><text x="830" y="431" class="well" fill="#3b236c">T+V</text>
<circle cx="902" cy="430" r="22" fill="#d8f3ff" stroke="#5daed0" stroke-width="3"/><circle cx="895" cy="423" r="6" fill="#fff" opacity=".35"/><text x="902" y="431" class="well" fill="#0f4f67">PBS</text>
<text x="72" y="496" class="lab" text-anchor="middle">F</text>
<circle cx="110" cy="490" r="22" fill="#d8f3ff" stroke="#5daed0" stroke-width="3"/><circle cx="103" cy="483" r="6" fill="#fff" opacity=".35"/><text x="110" y="491" class="well" fill="#0f4f67">PBS</text>
<circle cx="182" cy="490" r="22" fill="#dcc7ff" stroke="#9570e8" stroke-width="3"/><circle cx="175" cy="483" r="6" fill="#fff" opacity=".35"/><text x="182" y="491" class="well" fill="#32195f">T+1</text>
<circle cx="254" cy="490" r="22" fill="#dcc7ff" stroke="#9570e8" stroke-width="3"/><circle cx="247" cy="483" r="6" fill="#fff" opacity=".35"/><text x="254" y="491" class="well" fill="#32195f">T+1</text>
<circle cx="326" cy="490" r="22" fill="#dcc7ff" stroke="#9570e8" stroke-width="3"/><circle cx="319" cy="483" r="6" fill="#fff" opacity=".35"/><text x="326" y="491" class="well" fill="#32195f">T+1</text>
<circle cx="398" cy="490" r="22" fill="#dcc7ff" stroke="#9570e8" stroke-width="3"/><circle cx="391" cy="483" r="6" fill="#fff" opacity=".35"/><text x="398" y="491" class="well" fill="#32195f">T+1</text>
<circle cx="470" cy="490" r="22" fill="#dcc7ff" stroke="#9570e8" stroke-width="3"/><circle cx="463" cy="483" r="6" fill="#fff" opacity=".35"/><text x="470" y="491" class="well" fill="#32195f">T+1</text>
<circle cx="542" cy="490" r="22" fill="#c9adff" stroke="#7c55d9" stroke-width="3"/><circle cx="535" cy="483" r="6" fill="#fff" opacity=".35"/><text x="542" y="491" class="well" fill="#ffffff">T+3</text>
<circle cx="614" cy="490" r="22" fill="#c9adff" stroke="#7c55d9" stroke-width="3"/><circle cx="607" cy="483" r="6" fill="#fff" opacity=".35"/><text x="614" y="491" class="well" fill="#ffffff">T+3</text>
<circle cx="686" cy="490" r="22" fill="#c9adff" stroke="#7c55d9" stroke-width="3"/><circle cx="679" cy="483" r="6" fill="#fff" opacity=".35"/><text x="686" y="491" class="well" fill="#ffffff">T+3</text>
<circle cx="758" cy="490" r="22" fill="#c9adff" stroke="#7c55d9" stroke-width="3"/><circle cx="751" cy="483" r="6" fill="#fff" opacity=".35"/><text x="758" y="491" class="well" fill="#ffffff">T+3</text>
<circle cx="830" cy="490" r="22" fill="#c9adff" stroke="#7c55d9" stroke-width="3"/><circle cx="823" cy="483" r="6" fill="#fff" opacity=".35"/><text x="830" y="491" class="well" fill="#ffffff">T+3</text>
<circle cx="902" cy="490" r="22" fill="#d8f3ff" stroke="#5daed0" stroke-width="3"/><circle cx="895" cy="483" r="6" fill="#fff" opacity=".35"/><text x="902" y="491" class="well" fill="#0f4f67">PBS</text>
<text x="72" y="556" class="lab" text-anchor="middle">G</text>
<circle cx="110" cy="550" r="22" fill="#d8f3ff" stroke="#5daed0" stroke-width="3"/><circle cx="103" cy="543" r="6" fill="#fff" opacity=".35"/><text x="110" y="551" class="well" fill="#0f4f67">PBS</text>
<circle cx="182" cy="550" r="22" fill="#ad8bff" stroke="#6334c3" stroke-width="3"/><circle cx="175" cy="543" r="6" fill="#fff" opacity=".35"/><text x="182" y="551" class="well" fill="#ffffff">T+10</text>
<circle cx="254" cy="550" r="22" fill="#ad8bff" stroke="#6334c3" stroke-width="3"/><circle cx="247" cy="543" r="6" fill="#fff" opacity=".35"/><text x="254" y="551" class="well" fill="#ffffff">T+10</text>
<circle cx="326" cy="550" r="22" fill="#ad8bff" stroke="#6334c3" stroke-width="3"/><circle cx="319" cy="543" r="6" fill="#fff" opacity=".35"/><text x="326" y="551" class="well" fill="#ffffff">T+10</text>
<circle cx="398" cy="550" r="22" fill="#ad8bff" stroke="#6334c3" stroke-width="3"/><circle cx="391" cy="543" r="6" fill="#fff" opacity=".35"/><text x="398" y="551" class="well" fill="#ffffff">T+10</text>
<circle cx="470" cy="550" r="22" fill="#ad8bff" stroke="#6334c3" stroke-width="3"/><circle cx="463" cy="543" r="6" fill="#fff" opacity=".35"/><text x="470" y="551" class="well" fill="#ffffff">T+10</text>
<circle cx="542" cy="550" r="22" fill="#e8edf3" stroke="#9aa7b5" stroke-width="3"/><circle cx="535" cy="543" r="6" fill="#fff" opacity=".35"/><text x="542" y="551" class="well" fill="#314052">Blk</text>
<circle cx="614" cy="550" r="22" fill="#e8edf3" stroke="#9aa7b5" stroke-width="3"/><circle cx="607" cy="543" r="6" fill="#fff" opacity=".35"/><text x="614" y="551" class="well" fill="#314052">Blk</text>
<circle cx="686" cy="550" r="22" fill="#e8edf3" stroke="#9aa7b5" stroke-width="3"/><circle cx="679" cy="543" r="6" fill="#fff" opacity=".35"/><text x="686" y="551" class="well" fill="#314052">Blk</text>
<circle cx="758" cy="550" r="22" fill="#e8edf3" stroke="#9aa7b5" stroke-width="3"/><circle cx="751" cy="543" r="6" fill="#fff" opacity=".35"/><text x="758" y="551" class="well" fill="#314052">Blk</text>
<circle cx="830" cy="550" r="22" fill="#e8edf3" stroke="#9aa7b5" stroke-width="3"/><circle cx="823" cy="543" r="6" fill="#fff" opacity=".35"/><text x="830" y="551" class="well" fill="#314052">Blk</text>
<circle cx="902" cy="550" r="22" fill="#d8f3ff" stroke="#5daed0" stroke-width="3"/><circle cx="895" cy="543" r="6" fill="#fff" opacity=".35"/><text x="902" y="551" class="well" fill="#0f4f67">PBS</text>
<text x="72" y="616" class="lab" text-anchor="middle">H</text>
<circle cx="110" cy="610" r="22" fill="#d8f3ff" stroke="#5daed0" stroke-width="3"/><circle cx="103" cy="603" r="6" fill="#fff" opacity=".35"/><text x="110" y="611" class="well" fill="#0f4f67">PBS</text>
<circle cx="182" cy="610" r="22" fill="#d8f3ff" stroke="#5daed0" stroke-width="3"/><circle cx="175" cy="603" r="6" fill="#fff" opacity=".35"/><text x="182" y="611" class="well" fill="#0f4f67">PBS</text>
<circle cx="254" cy="610" r="22" fill="#d8f3ff" stroke="#5daed0" stroke-width="3"/><circle cx="247" cy="603" r="6" fill="#fff" opacity=".35"/><text x="254" y="611" class="well" fill="#0f4f67">PBS</text>
<circle cx="326" cy="610" r="22" fill="#d8f3ff" stroke="#5daed0" stroke-width="3"/><circle cx="319" cy="603" r="6" fill="#fff" opacity=".35"/><text x="326" y="611" class="well" fill="#0f4f67">PBS</text>
<circle cx="398" cy="610" r="22" fill="#d8f3ff" stroke="#5daed0" stroke-width="3"/><circle cx="391" cy="603" r="6" fill="#fff" opacity=".35"/><text x="398" y="611" class="well" fill="#0f4f67">PBS</text>
<circle cx="470" cy="610" r="22" fill="#d8f3ff" stroke="#5daed0" stroke-width="3"/><circle cx="463" cy="603" r="6" fill="#fff" opacity=".35"/><text x="470" y="611" class="well" fill="#0f4f67">PBS</text>
<circle cx="542" cy="610" r="22" fill="#d8f3ff" stroke="#5daed0" stroke-width="3"/><circle cx="535" cy="603" r="6" fill="#fff" opacity=".35"/><text x="542" y="611" class="well" fill="#0f4f67">PBS</text>
<circle cx="614" cy="610" r="22" fill="#d8f3ff" stroke="#5daed0" stroke-width="3"/><circle cx="607" cy="603" r="6" fill="#fff" opacity=".35"/><text x="614" y="611" class="well" fill="#0f4f67">PBS</text>
<circle cx="686" cy="610" r="22" fill="#d8f3ff" stroke="#5daed0" stroke-width="3"/><circle cx="679" cy="603" r="6" fill="#fff" opacity=".35"/><text x="686" y="611" class="well" fill="#0f4f67">PBS</text>
<circle cx="758" cy="610" r="22" fill="#d8f3ff" stroke="#5daed0" stroke-width="3"/><circle cx="751" cy="603" r="6" fill="#fff" opacity=".35"/><text x="758" y="611" class="well" fill="#0f4f67">PBS</text>
<circle cx="830" cy="610" r="22" fill="#d8f3ff" stroke="#5daed0" stroke-width="3"/><circle cx="823" cy="603" r="6" fill="#fff" opacity=".35"/><text x="830" y="611" class="well" fill="#0f4f67">PBS</text>
<circle cx="902" cy="610" r="22" fill="#d8f3ff" stroke="#5daed0" stroke-width="3"/><circle cx="895" cy="603" r="6" fill="#fff" opacity=".35"/><text x="902" y="611" class="well" fill="#0f4f67">PBS</text>
<rect x="100" y="712" width="900" height="36" rx="18" fill="#eaf7fb" stroke="#b9e3ef"/><text x="120" y="735" class="small">澶栧湀 PBS 灞忛殰锛涘唴鍦?60 瀛旂敤浜庡疄楠屽瓟锛汫7-G11 榛樿 Blank锛屽彲鍦ㄤ氦浜掔増涓慨鏀广€?/text>
<rect x="1080" y="148" width="360" height="620" rx="24" fill="#fff" stroke="#d8e8f5" filter="url(#shadow)"/><text x="1110" y="190" class="lab">鍥句緥</text><line x1="1110" y1="205" x2="1410" y2="205" stroke="#dbeafe" stroke-width="3"/>
<circle cx="1116" cy="231" r="10" fill="#d8f3ff" stroke="#5daed0" stroke-width="2"/><text x="1138" y="236" class="legend">PBS &#183; PBS</text>
<circle cx="1116" cy="263" r="10" fill="#ffe8a3" stroke="#d99a16" stroke-width="2"/><text x="1138" y="268" class="legend">Veh &#183; Vehicle</text>
<circle cx="1116" cy="295" r="10" fill="#d7f5df" stroke="#74c88b" stroke-width="2"/><text x="1138" y="300" class="legend">E0.1 &#183; ES-Cu 0.1 渭M</text>
<circle cx="1116" cy="327" r="10" fill="#b9efd0" stroke="#54bb7d" stroke-width="2"/><text x="1138" y="332" class="legend">E0.3 &#183; ES-Cu 0.3 渭M</text>
<circle cx="1116" cy="359" r="10" fill="#8ee3bb" stroke="#35a96f" stroke-width="2"/><text x="1138" y="364" class="legend">E1 &#183; ES-Cu 1 渭M</text>
<circle cx="1116" cy="391" r="10" fill="#62d0a4" stroke="#209365" stroke-width="2"/><text x="1138" y="396" class="legend">E3 &#183; ES-Cu 3 渭M</text>
<circle cx="1116" cy="423" r="10" fill="#35b98a" stroke="#127b56" stroke-width="2"/><text x="1138" y="428" class="legend">E10 &#183; ES-Cu 10 渭M</text>
<circle cx="1116" cy="455" r="10" fill="#158160" stroke="#0e5c47" stroke-width="2"/><text x="1138" y="460" class="legend">E30 &#183; ES-Cu 30 渭M</text>
<circle cx="1116" cy="487" r="10" fill="#ede0ff" stroke="#a78bfa" stroke-width="2"/><text x="1138" y="492" class="legend">T+V &#183; TTM + Vehicle</text>
<circle cx="1116" cy="519" r="10" fill="#dcc7ff" stroke="#9570e8" stroke-width="2"/><text x="1138" y="524" class="legend">T+1 &#183; TTM + ES-Cu 1 渭M</text>
<circle cx="1116" cy="551" r="10" fill="#c9adff" stroke="#7c55d9" stroke-width="2"/><text x="1138" y="556" class="legend">T+3 &#183; TTM + ES-Cu 3 渭M</text>
<circle cx="1116" cy="583" r="10" fill="#ad8bff" stroke="#6334c3" stroke-width="2"/><text x="1138" y="588" class="legend">T+10 &#183; TTM + ES-Cu 10 渭M</text>
<circle cx="1116" cy="615" r="10" fill="#e8edf3" stroke="#9aa7b5" stroke-width="2"/><text x="1138" y="620" class="legend">Blk &#183; Blank</text>
<circle cx="1116" cy="647" r="10" fill="#ffd6cc" stroke="#f9735b" stroke-width="2"/><text x="1138" y="652" class="legend">DrugBlk &#183; Drug blank</text>
<rect x="1104" y="710" width="310" height="36" rx="14" fill="#eefdf7" stroke="#8ee3bb"/><text x="1120" y="733" class="small">鍙湪涓婃柟 DataviewJS 缂栬緫鍣ㄤ腑鐐瑰嚮淇敼</text>
<text x="80" y="820" class="small">褰掍竴鍖栵細ES-Cu 缁勫 Veh锛汿TM rescue 缁勫 T+V銆傝嫢鑽墿鏈夎儗鏅紝浣跨敤鍚屾祿搴?drug blank 鎵ｉ櫎銆?/text>
<text x="80" y="846" class="small">鏁版嵁婧愶細attachment/run/cell/CCK-8-96-well-layout.json锛涢潤鎬侀瑙堢敱缂栬緫鍣ㄤ繚瀛樸€?/text>
</svg>
